<?xml version="1.0" encoding="UTF-8"?>
<svg width="752pt" height="752pt" version="1.1" viewBox="0 0 752 752" xmlns="http://www.w3.org/2000/svg">
 <g>
  <path d="m425.23 256.27-6.0352-1.2148-3.5664 5.0156c-9.6094 13.512-24.047 21.266-39.625 21.266-15.574 0-30.016-7.7539-39.625-21.27l-3.5625-5.0117-6.0273 1.2188c-25.285 5.1094-43.637 26.68-43.637 51.297v32.062h185.71v-32.062c-0.003906-24.613-18.355-46.191-43.633-51.301zm24.688 64.41h-147.82v-13.117c0-13.852 9.3906-26.242 23-31.199 13.074 15.277 31.293 23.91 50.91 23.91s37.828-8.6328 50.91-23.91c13.609 4.957 23 17.348 23 31.199z"/>
  <path d="m376 264.96c27.867 0 50.535-27.621 50.535-61.566 0-31.027-19.363-50.305-50.535-50.305-31.176 0-50.535 19.273-50.535 50.305 0 33.949 22.672 61.566 50.535 61.566zm0-92.93c14.41 0 31.594 5.4414 31.594 31.359 0 23.504-14.168 42.621-31.594 42.621-17.422 0-31.594-19.125-31.594-42.621 0.003906-25.918 17.184-31.359 31.594-31.359z"/>
  <path d="m286.12 513.69-6.0273-1.2227-3.5664 5.0195c-9.6094 13.516-24.047 21.27-39.625 21.27-15.57 0-30.016-7.7578-39.629-21.273l-3.5625-5.0156-6.0352 1.2227c-25.281 5.1094-43.633 26.68-43.633 51.293v32.062h185.71v-32.062c0.003907-24.613-18.348-46.184-43.633-51.293zm24.691 64.41h-147.82v-13.117c0-13.855 9.3906-26.242 23-31.199 13.082 15.281 31.301 23.914 50.91 23.914s37.828-8.6328 50.91-23.914c13.609 4.957 23 17.344 23 31.199z"/>
  <path d="m236.91 522.38c27.867 0 50.535-27.621 50.535-61.566 0-31.027-19.363-50.305-50.535-50.305-31.172 0.003907-50.535 19.277-50.535 50.309 0 33.945 22.668 61.562 50.535 61.562zm0-92.926c14.41 0 31.594 5.4375 31.594 31.359 0 23.504-14.176 42.621-31.594 42.621s-31.594-19.117-31.594-42.621c0-25.918 17.184-31.359 31.594-31.359z"/>
  <path d="m564.32 513.69-6.0273-1.2227-3.5664 5.0156c-9.6133 13.516-24.059 21.273-39.625 21.273-15.57 0-30.016-7.7578-39.629-21.273l-3.5664-5.0156-6.0273 1.2227c-25.281 5.1094-43.633 26.68-43.633 51.293v32.062h185.71v-32.062c-0.003906-24.613-18.355-46.191-43.637-51.293zm24.688 64.41h-147.82v-13.117c0-13.855 9.3906-26.242 23-31.199 13.082 15.281 31.301 23.914 50.91 23.914s37.824-8.6328 50.906-23.914c13.609 4.957 23 17.344 23 31.199l0.003906 13.117z"/>
  <path d="m464.55 460.82c0 33.945 22.672 61.566 50.539 61.566s50.535-27.621 50.535-61.566c0-31.027-19.363-50.305-50.535-50.305s-50.539 19.273-50.539 50.305zm82.137 0c0 23.504-14.168 42.621-31.594 42.621-17.422 0-31.598-19.117-31.598-42.621 0-25.922 17.18-31.359 31.598-31.359 14.41-0.003906 31.594 5.4375 31.594 31.359z"/>
  <path d="m527.04 352.32c0 12.848-1.6211 25.609-4.8086 37.941l18.34 4.7461c3.5898-13.879 5.4102-28.238 5.4102-42.688 0-65.156-36.305-123.58-94.746-152.46l-8.3984 16.984c51.941 25.668 84.203 77.582 84.203 135.48z"/>
  <path d="m448.72 480c-22.137 12.184-47.281 18.629-72.719 18.629-26.203 0-52.012-6.8086-74.645-19.707l-9.3711 16.465c25.48 14.512 54.539 22.188 84.02 22.188 28.625 0 56.93-7.25 81.859-20.98z"/>
  <path d="m229.79 390.36c-3.207-12.352-4.832-25.152-4.832-38.035 0-57.773 32.164-109.63 83.941-135.36l-8.4258-16.965c-58.262 28.945-94.457 87.312-94.457 152.33 0 14.492 1.8281 28.887 5.4336 42.789z"/>
 </g>
</svg>
