 <svg version="1.0" xmlns="http://www.w3.org/2000/svg" width="700.000000pt" height="700.000000pt" viewBox="0 0 700.000000 700.000000" preserveAspectRatio="xMidYMid meet">
<metadata>
Created by potrace 1.12, written by Peter Selinger 2001-2015
</metadata>
<g transform="translate(0.000000,700.000000) scale(0.100000,-0.100000)" fill="#000000" stroke="none">
<path d="M3598 5645 c2 -36 1 -65 -3 -65 -8 0 -75 52 -119 93 -35 31 -46 34
-46 10 0 -10 14 -25 30 -33 16 -8 57 -39 90 -68 l60 -54 0 65 c0 36 4 77 10
91 8 22 7 26 -8 26 -15 0 -17 -9 -14 -65z"></path>
<path d="M3230 5691 c0 -5 5 -11 11 -13 7 -2 14 -36 17 -81 5 -75 5 -77 31
-77 15 0 21 3 14 8 -6 4 -13 23 -15 42 -3 31 0 35 22 36 38 0 40 19 3 22 -29
3 -33 7 -33 34 0 29 2 30 30 25 17 -4 30 -2 30 3 0 6 -25 10 -55 10 -30 0 -55
-4 -55 -9z"></path>
<path d="M3685 5695 c6 -2 22 -6 37 -9 26 -6 27 -8 22 -54 -3 -26 -10 -61 -14
-79 -7 -26 -5 -32 10 -36 14 -4 18 1 17 17 -3 38 15 146 24 146 5 0 9 5 9 10
0 6 -25 10 -57 9 -32 0 -53 -2 -48 -4z"></path>
<path d="M3835 5670 c3 -5 8 -10 11 -10 2 0 4 5 4 10 0 6 -5 10 -11 10 -5 0
-7 -4 -4 -10z"></path>
<path d="M3054 5663 c3 -4 14 -8 23 -9 44 -7 62 -16 78 -40 20 -31 14 -65 -17
-94 -23 -22 -13 -27 13 -7 46 35 50 88 10 128 -23 23 -38 29 -72 29 -23 0 -39
-3 -35 -7z"></path>
<path d="M4024 5598 c-26 -35 -59 -75 -72 -90 -21 -23 -23 -28 -9 -28 25 0 31
4 34 20 1 8 12 24 25 36 13 11 24 27 26 35 2 8 12 23 23 34 19 19 19 19 20 0
1 -27 8 -94 12 -130 2 -16 11 -31 19 -33 13 -2 14 6 7 50 -4 29 -10 79 -14
111 -3 31 -10 57 -15 57 -5 0 -30 -28 -56 -62z"></path>
<path d="M2980 5642 c0 -5 7 -32 16 -61 8 -29 16 -66 16 -82 1 -20 6 -29 17
-29 19 0 52 20 34 20 -18 0 -44 67 -46 117 -2 33 -6 43 -19 43 -10 0 -18 -4
-18 -8z"></path>
<path d="M3431 5624 c0 -11 3 -14 6 -6 3 7 2 16 -1 19 -3 4 -6 -2 -5 -13z"></path>
<path d="M2866 5621 c-3 -5 0 -14 7 -20 8 -6 20 -36 27 -67 11 -45 11 -60 1
-76 -8 -13 -9 -18 -1 -13 24 15 29 53 15 111 -7 32 -11 62 -9 66 3 5 -4 8 -15
8 -11 0 -22 -4 -25 -9z"></path>
<path d="M2715 5570 c-3 -5 -1 -10 5 -10 5 0 22 -26 36 -57 25 -57 38 -73 62
-73 8 0 5 8 -8 22 -11 12 -28 46 -37 75 -12 38 -22 53 -34 53 -10 0 -21 -4
-24 -10z"></path>
<path d="M4222 5568 c-18 -18 -15 -40 14 -81 30 -45 26 -67 -13 -67 -25 -1
-26 -2 -9 -11 27 -16 66 4 66 33 0 13 -12 40 -26 61 -16 24 -23 45 -19 57 7
23 4 25 -13 8z"></path>
<path d="M4295 5554 c9 -9 19 -13 23 -10 3 4 0 11 -8 16 -24 15 -33 11 -15 -6z"></path>
<path d="M3430 5545 c-11 -13 -8 -15 15 -15 23 0 26 2 15 15 -7 8 -14 15 -15
15 -1 0 -8 -7 -15 -15z"></path>
<path d="M2675 5540 c3 -5 8 -10 11 -10 2 0 4 5 4 10 0 6 -5 10 -11 10 -5 0
-7 -4 -4 -10z"></path>
<path d="M2638 5533 c7 -3 16 -2 19 1 4 3 -2 6 -13 5 -11 0 -14 -3 -6 -6z"></path>
<path d="M3340 5529 c0 -5 5 -7 10 -4 6 3 10 8 10 11 0 2 -4 4 -10 4 -5 0 -10
-5 -10 -11z"></path>
<path d="M2584 5515 c-15 -11 -16 -14 -4 -15 18 0 84 -125 75 -140 -8 -12 15
-13 34 -1 12 8 12 12 -3 26 -21 22 -66 109 -66 130 0 19 -11 19 -36 0z"></path>
<path d="M4387 5508 c-23 -12 -21 -50 3 -81 23 -29 26 -57 8 -75 -13 -13 0
-16 18 -4 22 15 22 41 0 83 -13 24 -21 50 -19 57 7 17 43 15 65 -5 10 -9 18
-11 18 -5 0 22 -68 45 -93 30z"></path>
<path d="M2412 5468 c-36 -22 -51 -60 -32 -83 7 -8 35 -18 63 -21 27 -4 58
-15 68 -25 20 -20 29 -16 22 10 -6 23 -44 41 -87 41 -63 0 -74 61 -12 68 14 2
26 7 26 12 0 18 -16 17 -48 -2z"></path>
<path d="M3494 5437 c-11 -12 -23 -30 -27 -39 -10 -29 17 -21 41 12 36 48 25
69 -14 27z"></path>
<path d="M4163 5446 c1 -11 9 -21 17 -23 10 -3 11 -2 4 4 -6 4 -14 15 -17 23
-5 11 -6 9 -4 -4z"></path>
<path d="M3390 5405 c-7 -9 -10 -19 -6 -22 8 -9 38 9 44 25 5 17 -23 15 -38
-3z"></path>
<path d="M4516 5389 c-14 -17 -26 -43 -26 -58 0 -29 33 -81 51 -81 6 0 3 7 -5
16 -56 55 1 162 73 139 12 -4 21 -2 21 4 0 6 -20 11 -44 11 -37 0 -48 -5 -70
-31z"></path>
<path d="M3260 5375 c0 -26 -18 -33 -37 -14 -8 8 -15 4 -27 -13 l-17 -23 -19
23 c-21 25 -40 29 -40 7 0 -8 -10 -25 -21 -36 l-21 -21 -25 26 c-26 29 -43 32
-61 14 -29 -29 -7 -78 35 -78 16 0 23 -6 23 -18 0 -19 -39 -62 -56 -62 -11 0
-50 83 -59 123 -3 16 -11 27 -18 24 -23 -7 -18 -45 14 -112 26 -55 29 -69 18
-76 -35 -20 -51 -37 -45 -47 4 -7 17 -5 41 9 l34 20 16 -36 c20 -49 19 -57 -6
-89 -23 -30 -69 -56 -97 -56 -20 0 -62 39 -62 58 0 7 -4 12 -10 12 -17 0 -11
-56 8 -73 19 -17 31 -20 84 -18 42 1 89 36 113 83 19 39 19 58 0 94 -20 40
-19 49 10 68 14 9 39 44 55 77 34 66 48 76 80 59 16 -9 25 -8 37 2 9 7 28 13
42 13 23 0 26 4 29 43 2 25 -1 42 -7 42 -6 0 -11 -11 -11 -25z m-220 -75 c0
-5 -7 -10 -15 -10 -8 0 -15 5 -15 10 0 6 7 10 15 10 8 0 15 -4 15 -10z"></path>
<path d="M4305 5391 c-6 -10 31 -44 42 -40 4 2 -2 14 -14 26 -13 12 -25 18
-28 14z"></path>
<path d="M4640 5396 c0 -2 7 -7 16 -10 8 -3 12 -2 9 4 -6 10 -25 14 -25 6z"></path>
<path d="M3510 5381 c0 -5 7 -14 16 -19 22 -12 9 -32 -21 -32 -28 0 -91 -51
-101 -82 -7 -23 9 -38 44 -38 28 0 28 -3 -3 -34 l-25 -25 -35 69 c-19 38 -35
76 -35 83 0 19 -27 53 -36 45 -9 -10 14 -91 28 -99 6 -4 13 -29 15 -56 5 -48
4 -51 -33 -81 -36 -30 -89 -50 -101 -39 -3 3 12 33 32 65 39 64 43 104 11 110
-25 5 -44 -14 -28 -30 17 -17 15 -44 -4 -73 -22 -34 -31 -31 -38 10 -11 58
-29 42 -24 -20 5 -54 4 -57 -35 -96 -31 -30 -37 -43 -28 -52 8 -8 20 -2 47 26
28 29 41 36 60 31 28 -7 76 10 121 43 41 30 47 29 73 -7 46 -65 99 -62 54 3
l-25 37 21 30 c12 17 31 32 43 34 12 2 44 8 71 13 82 14 70 33 -21 33 -100 0
-119 11 -79 46 15 14 41 28 57 31 36 7 51 25 47 55 -2 18 -10 24 -35 26 -18 2
-33 -1 -33 -7z"></path>
<path d="M3770 5375 c0 -8 5 -15 10 -15 6 0 10 7 10 15 0 8 -4 15 -10 15 -5 0
-10 -7 -10 -15z"></path>
<path d="M3661 5361 c-6 -10 -7 -21 -4 -25 9 -8 33 14 33 30 0 20 -18 17 -29
-5z"></path>
<path d="M4679 5325 c-4 -43 -8 -52 -39 -73 l-35 -25 30 8 c59 14 83 56 61
108 l-14 32 -3 -50z"></path>
<path d="M3887 5353 c-15 -15 -5 -40 32 -76 21 -21 46 -53 56 -71 17 -31 17
-35 -3 -102 -11 -38 -23 -88 -25 -111 -5 -40 -3 -42 25 -48 16 -4 50 -4 74 0
42 6 44 5 44 -20 0 -36 40 -51 98 -36 59 15 62 15 62 -17 0 -16 6 -36 13 -46
27 -37 83 5 139 102 16 28 33 52 38 52 19 0 17 -57 -3 -95 -32 -60 -37 -74
-27 -80 5 -3 16 8 25 25 8 16 20 30 25 30 14 0 13 -77 -1 -86 -18 -11 -89 -8
-102 5 -15 15 -27 14 -27 -4 0 -39 100 -51 147 -17 30 21 162 203 170 233 3
10 -1 27 -7 40 l-13 23 -18 -23 c-11 -13 -19 -33 -19 -45 0 -24 -71 -148 -87
-153 -12 -4 -23 29 -23 68 0 14 17 49 40 79 25 33 40 65 40 82 0 42 -14 34
-46 -27 -16 -30 -32 -55 -36 -55 -3 0 -9 14 -13 30 -5 22 -1 39 14 64 25 40
27 56 6 56 -8 0 -15 -7 -15 -15 0 -29 -19 -14 -39 31 -12 27 -26 44 -33 42
-23 -8 -20 -38 7 -91 l28 -52 -28 -55 c-75 -148 -134 -185 -135 -82 0 27 -4
32 -22 32 -13 0 -32 -7 -42 -15 -32 -24 -70 -19 -94 14 -18 25 -19 31 -7 41 8
6 19 28 26 48 6 20 15 42 19 47 4 6 11 28 14 50 4 22 16 55 27 74 28 47 19 78
-25 87 -38 7 -76 -2 -76 -17 0 -6 17 -9 38 -8 20 2 37 -1 36 -6 -1 -11 -29
-107 -51 -178 -16 -52 -33 -57 -44 -14 -4 15 -17 48 -29 73 -22 44 -22 46 -6
107 23 85 23 91 4 95 -14 3 -18 -7 -24 -47 -4 -32 -11 -51 -20 -51 -7 0 -27
27 -46 60 -31 56 -45 69 -61 53z m159 -305 c25 -52 21 -61 -33 -73 -30 -6 -33
-4 -33 17 0 22 14 85 27 118 5 13 6 13 10 0 3 -8 16 -36 29 -62z"></path>
<path d="M3408 5339 c-24 -13 -23 -29 2 -29 13 0 20 7 20 20 0 23 1 23 -22 9z"></path>
<path d="M3801 5311 c-10 -17 -19 -22 -37 -18 -19 3 -24 1 -22 -12 4 -22 61
-27 78 -6 9 11 10 22 3 38 l-10 22 -12 -24z"></path>
<path d="M2514 5293 c-6 -10 -24 -16 -42 -16 -19 0 -31 -5 -29 -11 6 -17 49
-8 71 14 11 11 18 22 15 24 -3 3 -9 -2 -15 -11z"></path>
<path d="M2826 5301 c-3 -5 -3 -16 0 -24 3 -8 1 -18 -5 -22 -6 -3 -11 -16 -11
-28 1 -21 2 -20 25 8 14 17 25 35 25 41 0 17 -27 37 -34 25z"></path>
<path d="M2196 5292 c-3 -5 11 -23 30 -41 19 -18 39 -42 45 -52 9 -18 5 -19
-96 -19 -58 0 -105 -3 -105 -7 0 -5 23 -32 50 -61 28 -29 50 -57 50 -62 0 -5
7 -7 15 -4 18 7 20 24 2 24 -16 0 -88 75 -80 84 4 3 51 6 105 6 54 0 98 3 98
6 0 3 -20 30 -45 61 -25 30 -45 59 -45 64 0 11 -17 12 -24 1z"></path>
<path d="M4728 5257 c-14 -13 -29 -33 -32 -45 -8 -24 12 -68 44 -97 l22 -20
-21 35 c-46 77 -8 142 78 131 7 -2 10 2 6 8 -12 20 -71 12 -97 -12z"></path>
<path d="M3141 5234 c-31 -25 -40 -44 -22 -44 13 0 71 50 71 61 0 16 -17 10
-49 -17z"></path>
<path d="M4254 5195 c-13 -31 -24 -58 -24 -61 0 -3 -12 -31 -26 -62 -38 -83
-45 -102 -35 -102 18 0 141 231 141 264 0 36 -32 14 -56 -39z"></path>
<path d="M4860 5249 c0 -3 9 -16 19 -28 11 -13 17 -29 14 -37 -6 -16 13 -19
23 -3 3 6 -8 25 -25 42 -17 18 -31 29 -31 26z"></path>
<path d="M2710 5225 c0 -17 123 -206 146 -226 25 -20 30 0 9 37 -40 69 -136
204 -145 204 -6 0 -10 -7 -10 -15z"></path>
<path d="M3778 5224 c-5 -4 -8 -38 -8 -75 0 -61 -3 -70 -26 -88 -15 -12 -33
-21 -40 -21 -20 0 -27 42 -19 107 6 51 5 56 -9 44 -8 -7 -28 -36 -45 -65 -46
-83 -81 -83 -81 -2 0 33 -2 37 -15 26 -8 -7 -15 -27 -15 -44 0 -32 33 -96 49
-96 6 0 24 20 41 45 33 48 50 51 50 9 0 -55 41 -84 70 -49 16 19 44 19 75 -1
17 -11 29 -13 43 -5 32 17 39 34 46 102 6 54 4 69 -9 83 -23 23 -36 11 -24
-22 9 -24 7 -67 -7 -114 -3 -11 -15 -18 -29 -18 -29 0 -34 15 -37 118 -2 41
-6 70 -10 66z"></path>
<path d="M4106 5221 c-3 -5 -15 -7 -26 -4 -23 6 -26 -9 -6 -26 16 -13 56 1 56
19 0 13 -18 22 -24 11z"></path>
<path d="M2633 5185 c-3 -9 -3 -18 0 -21 9 -9 27 6 27 22 0 19 -19 18 -27 -1z"></path>
<path d="M4972 5126 c-5 -13 -33 -41 -61 -62 -51 -39 -61 -66 -27 -72 10 -2
16 0 13 5 -6 10 75 93 106 110 17 9 17 10 -1 26 -18 16 -19 16 -30 -7z"></path>
<path d="M3090 5105 c0 -8 5 -15 10 -15 6 0 10 7 10 15 0 8 -4 15 -10 15 -5 0
-10 -7 -10 -15z"></path>
<path d="M4770 5091 c0 -16 41 -24 54 -11 8 10 8 11 -1 6 -7 -4 -22 -2 -33 4
-12 6 -20 7 -20 1z"></path>
<path d="M2576 5081 c-3 -5 1 -11 9 -15 20 -7 19 -26 0 -26 -9 0 -18 -7 -21
-15 -4 -8 -12 -15 -20 -15 -8 0 -14 -4 -14 -9 0 -15 29 -21 42 -8 7 7 21 16
31 20 26 10 32 35 12 57 -20 22 -31 25 -39 11z"></path>
<path d="M4290 5065 c0 -8 5 -15 10 -15 6 0 10 7 10 15 0 8 -4 15 -10 15 -5 0
-10 -7 -10 -15z"></path>
<path d="M1940 5045 c0 -8 14 -45 30 -82 17 -36 30 -75 30 -87 0 -18 2 -19 15
-5 14 14 14 19 -2 47 -14 24 -15 36 -7 49 19 31 41 39 76 25 27 -10 35 -9 47
3 14 13 13 15 -2 15 -10 0 -46 9 -80 19 -108 34 -107 34 -107 16z m66 -29 c18
-14 18 -16 2 -32 -20 -20 -31 -13 -43 24 -8 26 11 30 41 8z"></path>
<path d="M2680 5024 c0 -9 16 -35 36 -60 36 -44 40 -74 9 -74 -8 0 -30 20 -47
45 -18 25 -38 45 -45 45 -23 0 -14 -33 19 -67 28 -29 31 -36 22 -60 -14 -41
-37 -39 -80 7 -21 22 -42 40 -46 40 -4 0 -8 -34 -8 -75 0 -69 -2 -75 -21 -75
-14 0 -19 -5 -17 -17 2 -13 13 -18 33 -18 l30 0 -2 58 c-1 31 1 57 4 57 3 0
18 -11 35 -25 42 -35 63 -32 93 15 18 28 32 40 49 40 50 0 49 71 -1 134 -39
47 -63 59 -63 30z"></path>
<path d="M5025 4989 c-33 -11 -72 -21 -87 -21 -23 -1 -26 -4 -17 -20 12 -22
23 -23 39 -3 7 8 22 15 34 15 12 0 27 5 33 11 6 6 20 9 31 7 16 -2 18 -7 11
-27 -8 -20 -11 -22 -26 -10 -15 13 -15 12 -4 -9 10 -18 9 -29 -4 -54 -14 -29
-14 -33 0 -47 13 -14 15 -13 15 2 0 10 14 47 30 84 47 102 45 105 -55 72z"></path>
<path d="M2435 4990 c-4 -6 1 -20 10 -30 12 -13 13 -19 4 -22 -8 -3 -10 -11
-5 -24 7 -18 8 -18 27 5 24 29 21 49 -8 68 -15 10 -23 11 -28 3z"></path>
<path d="M4260 4986 c0 -12 11 -16 41 -16 52 0 48 24 -4 28 -28 2 -37 -1 -37
-12z"></path>
<path d="M3356 4933 c7 -47 1 -52 -29 -25 -19 16 -19 16 -12 -6 6 -22 5 -23
-17 -11 -12 6 -35 20 -50 30 -38 28 -42 23 -14 -14 34 -44 33 -51 -5 -31 -29
15 -31 15 -26 0 8 -20 -4 -20 -48 -2 -19 8 -35 11 -35 5 0 -5 5 -9 12 -9 6 0
35 -11 64 -25 l53 -25 53 22 c46 18 72 21 193 22 118 0 149 -4 198 -22 42 -15
65 -18 82 -12 25 9 43 30 26 30 -6 0 -8 7 -5 15 7 18 -7 20 -23 4 -6 -6 -17
-9 -23 -7 -8 2 -3 15 15 36 30 36 26 41 -13 13 -15 -10 -38 -24 -51 -31 -22
-11 -24 -11 -18 10 5 20 4 21 -12 6 -28 -25 -34 -19 -27 27 l6 42 -40 -45 -39
-45 -1 30 -1 30 -18 -22 c-20 -24 -41 -14 -41 19 0 28 -14 21 -28 -13 l-11
-32 -20 24 -20 24 -1 -30 -1 -30 -40 45 -40 45 7 -42z"></path>
<path d="M1812 4928 c-17 -17 -15 -28 6 -28 11 0 27 -9 37 -20 10 -11 24 -20
31 -20 7 0 24 -14 39 -31 25 -30 27 -31 40 -13 18 24 19 35 2 28 -13 -4 -119
68 -125 86 -5 13 -16 12 -30 -2z"></path>
<path d="M5215 4880 c10 -11 20 -20 22 -20 2 0 -2 9 -9 20 -7 11 -17 20 -22
20 -5 0 -1 -9 9 -20z"></path>
<path d="M3845 4873 l-30 -14 30 6 c31 7 41 12 34 19 -2 2 -17 -3 -34 -11z"></path>
<path d="M2252 4868 c-6 -8 -15 -56 -19 -107 -3 -50 -10 -94 -14 -97 -4 -2
-11 23 -15 56 -4 33 -10 60 -14 60 -4 0 -13 -45 -20 -100 -7 -55 -16 -100 -20
-100 -4 0 -10 27 -14 60 -4 33 -11 62 -15 65 -5 2 -12 -47 -16 -110 -4 -63
-10 -113 -15 -110 -4 3 -11 34 -15 70 -8 75 -25 88 -25 19 0 -34 -3 -45 -13
-41 -37 14 -44 -25 -39 -210 2 -73 5 -93 16 -93 8 0 17 14 21 30 8 35 16 38
33 10 11 -18 9 -23 -13 -43 -33 -28 -48 -107 -21 -107 48 0 83 55 73 116 -5
31 -4 34 14 29 32 -11 77 5 109 37 17 16 30 34 30 39 0 14 -102 -1 -121 -18
-15 -12 -17 -11 -23 9 -9 35 -7 41 10 34 10 -4 22 1 30 11 10 13 13 14 14 4 0
-20 100 -9 112 13 16 29 30 18 22 -16 -9 -40 -7 -77 5 -92 5 -6 30 -17 55 -25
69 -20 94 0 163 129 31 58 69 120 84 138 29 32 64 92 54 92 -2 0 -19 -9 -37
-20 -45 -27 -53 -25 -30 8 20 28 40 102 28 102 -19 0 -86 -48 -96 -68 -13 -29
-13 -65 1 -79 7 -7 2 -15 -15 -27 l-26 -16 0 87 c-1 82 -2 87 -16 68 -9 -11
-23 -35 -30 -53 -8 -18 -25 -42 -38 -53 -13 -11 -29 -38 -36 -59 -7 -22 -21
-42 -32 -45 -10 -4 -18 -16 -19 -28 -1 -20 -2 -20 -8 3 -6 18 -3 31 10 45 10
11 25 37 33 57 9 20 20 40 26 43 25 15 90 145 73 145 -3 0 -21 -13 -40 -30
-18 -16 -38 -30 -43 -30 -13 0 -13 17 0 25 6 3 10 34 10 68 l-1 62 -27 -31
c-15 -17 -37 -44 -49 -60 l-22 -29 -1 45 c-1 25 -5 65 -8 89 -6 37 -9 42 -20
29z m66 -230 c-7 -19 -38 -22 -38 -4 0 10 9 16 21 16 12 0 19 -5 17 -12z m-42
-79 c3 -5 14 -9 25 -9 26 0 16 -16 -13 -23 -13 -2 -31 -8 -40 -12 -15 -6 -18
-2 -18 28 0 30 3 34 20 30 11 -3 23 -9 26 -14z m178 -81 c30 -4 30 -30 0 -51
-14 -11 -27 -17 -29 -15 -2 2 -6 28 -10 58 -4 45 -3 51 6 33 6 -12 21 -23 33
-25z m-404 -30 c0 -68 -15 -94 -22 -40 -7 45 0 92 13 92 5 0 9 -24 9 -52z
m198 11 l47 0 -43 -14 c-24 -7 -52 -21 -63 -31 -18 -17 -19 -16 -19 21 0 30 3
36 16 31 9 -3 37 -6 62 -7z m222 -96 c0 -5 -22 -20 -50 -34 -52 -28 -60 -25
-60 22 0 16 7 19 55 19 30 0 55 -3 55 -7z"></path>
<path d="M4747 4860 c-4 -14 -10 -78 -14 -143 l-6 -118 -24 23 c-23 22 -23 22
-3 30 12 5 20 16 20 32 0 24 -57 117 -76 123 -13 4 -6 -103 8 -130 9 -17 7
-17 -14 -7 -13 7 -35 24 -50 38 -15 14 -30 23 -33 21 -8 -9 37 -90 71 -126 19
-20 34 -44 34 -53 0 -9 11 -34 25 -54 14 -20 25 -45 25 -56 0 -38 54 -73 108
-69 73 4 79 1 78 -31 -1 -33 -11 -37 -36 -15 -9 8 -38 18 -65 22 l-49 6 23
-32 c30 -41 70 -61 125 -61 67 0 76 23 75 192 -1 171 -17 221 -34 106 -9 -62
-25 -52 -25 15 0 29 -3 70 -7 92 l-7 40 -9 -35 c-4 -19 -12 -51 -16 -70 -7
-33 -8 -34 -14 -10 -3 14 -11 59 -17 100 -12 82 -20 101 -20 49 -1 -19 -7 -45
-14 -58 -13 -24 -14 -24 -19 20 -3 24 -12 76 -19 114 -11 57 -15 65 -21 45z
m41 -336 c-1 -49 -8 -56 -23 -22 -6 13 -19 25 -30 27 -11 2 -29 10 -40 18 -19
14 -19 15 8 9 19 -4 29 -2 33 7 3 9 14 12 29 9 21 -4 24 -9 23 -48z m8 -65 c3
-6 17 -8 30 -5 21 6 24 3 24 -24 0 -16 -4 -30 -10 -30 -5 0 -10 5 -10 11 0 5
-16 17 -35 25 -20 8 -33 19 -30 24 8 13 22 13 31 -1z m-49 -5 c-3 -3 -12 -4
-19 -1 -8 3 -5 6 6 6 11 1 17 -2 13 -5z"></path>
<path d="M2455 4851 c-8 -15 3 -31 21 -31 9 0 14 7 12 17 -4 20 -24 28 -33 14z"></path>
<path d="M1846 4834 c-5 -14 -4 -15 9 -4 17 14 19 20 6 20 -5 0 -12 -7 -15
-16z"></path>
<path d="M5190 4795 c-36 -25 -71 -45 -77 -45 -15 0 -16 -9 -4 -28 6 -10 24
-2 75 37 73 54 94 56 103 10 5 -27 23 -41 23 -19 0 10 -47 90 -53 90 -1 0 -31
-20 -67 -45z"></path>
<path d="M1720 4801 c-14 -27 -13 -31 7 -31 19 0 114 -58 126 -78 7 -10 12
-10 23 -1 15 12 20 44 6 35 -5 -3 -23 4 -41 15 -32 19 -32 20 -17 44 9 14 12
25 7 25 -5 0 -13 -9 -16 -20 -3 -11 -12 -20 -18 -20 -17 1 -47 25 -47 39 0 18
-18 13 -30 -8z"></path>
<path d="M3381 4784 c-23 -21 -47 -48 -52 -62 -8 -20 -12 -22 -24 -12 -12 10
-20 7 -44 -12 -17 -12 -30 -29 -30 -35 -1 -18 36 -16 43 2 4 13 10 14 26 5 18
-9 23 -7 38 20 31 56 38 64 57 56 15 -5 17 -14 11 -52 -4 -34 -3 -45 7 -42 6
3 13 24 15 47 2 25 9 44 18 48 19 7 18 23 -1 23 -17 0 -20 16 -5 25 11 7 4 25
-9 25 -4 0 -27 -16 -50 -36z"></path>
<path d="M3620 4785 c0 -14 5 -25 10 -25 6 0 10 11 10 25 0 14 -4 25 -10 25
-5 0 -10 -11 -10 -25z"></path>
<path d="M3737 4762 c-19 -20 -23 -87 -7 -97 6 -4 10 7 10 24 0 18 9 40 20 51
11 11 20 25 20 30 0 16 -26 11 -43 -8z"></path>
<path d="M3630 4718 c0 -7 -5 -20 -10 -28 -8 -13 -11 -12 -24 5 -12 17 -17 18
-40 7 -31 -14 -37 -47 -6 -39 10 3 21 0 22 -5 3 -7 23 -7 58 -2 50 8 55 12 58
37 2 15 -1 27 -7 27 -6 0 -11 -9 -11 -20 0 -11 -4 -20 -10 -20 -5 0 -10 9 -10
19 0 11 -4 23 -10 26 -5 3 -10 0 -10 -7z"></path>
<path d="M4401 4659 c6 -23 14 -50 20 -60 13 -25 -2 -24 -35 2 -15 12 -29 19
-32 16 -7 -7 23 -65 53 -102 40 -49 90 -131 103 -169 15 -48 63 -86 105 -86
49 0 84 16 95 44 11 29 -10 128 -33 154 -8 9 -24 36 -36 60 -12 23 -28 42 -35
42 -8 0 -17 11 -20 25 -8 33 -46 95 -58 95 -5 0 -7 -12 -4 -27 3 -16 2 -48 -2
-73 -7 -45 -8 -45 -32 -33 -21 10 -22 13 -7 19 19 7 23 45 7 75 -9 15 -77 59
-94 59 -2 0 0 -19 5 -41z m199 -200 l-13 -38 -28 16 c-22 13 -26 20 -17 30 6
7 16 13 24 13 7 0 19 10 25 22 18 34 24 4 9 -43z m56 -101 c-3 -13 -6 -30 -6
-39 0 -14 -8 -12 -55 10 -30 14 -55 29 -55 33 0 4 24 9 53 11 28 2 56 4 61 5
4 1 6 -8 2 -20z"></path>
<path d="M5338 4693 c-5 -13 -106 -73 -123 -73 -21 0 -28 -19 -14 -36 7 -9 15
-11 18 -5 12 18 125 81 138 77 7 -3 13 1 13 8 0 16 -27 40 -32 29z"></path>
<path d="M1634 4655 c-36 -48 -27 -49 17 -3 21 21 31 38 23 38 -7 0 -25 -16
-40 -35z"></path>
<path d="M1725 4647 c-15 -21 -14 -22 16 -28 49 -11 56 -24 34 -65 -41 -77
-141 -88 -171 -20 -13 30 -13 30 -14 6 0 -14 7 -36 16 -48 12 -18 25 -22 68
-22 49 0 56 3 79 34 15 18 34 50 44 71 17 35 17 37 -1 47 -10 6 -27 19 -37 29
-18 18 -19 18 -34 -4z"></path>
<path d="M3494 4593 c-14 -47 -15 -48 -109 -72 -54 -14 -120 -76 -134 -126
-14 -51 -14 -145 0 -182 5 -15 22 -40 37 -55 18 -20 21 -28 11 -28 -8 0 -44
-21 -79 -47 l-65 -48 -158 -5 -157 -5 46 -52 46 -53 572 0 572 0 44 45 c37 38
42 47 30 55 -8 5 -74 10 -145 10 l-130 0 -83 54 c-45 30 -78 57 -72 61 6 3 20
25 32 48 30 58 30 165 0 224 -25 49 -84 100 -124 108 -15 3 -42 8 -58 11 -23
4 -34 15 -45 40 -16 38 -23 42 -31 17z"></path>
<path d="M2998 4548 c-23 -18 -60 -87 -53 -99 4 -5 42 -9 86 -9 l79 0 0 29 c0
37 -44 91 -74 91 -12 0 -29 -6 -38 -12z"></path>
<path d="M3931 4525 c-17 -20 -31 -47 -31 -60 0 -25 1 -25 85 -25 52 0 85 4
85 10 0 24 -30 79 -51 94 -35 24 -54 20 -88 -19z"></path>
<path d="M5340 4553 c-38 -14 -60 -47 -60 -87 l1 -41 14 40 c8 22 15 41 15 42
0 1 14 10 30 18 38 19 67 12 97 -23 13 -15 23 -22 23 -16 0 17 -53 62 -80 68
-14 3 -32 2 -40 -1z"></path>
<path d="M4984 4493 c4 -21 7 -42 6 -48 -13 -141 -11 -215 9 -215 10 0 22 233
14 273 -3 15 -12 27 -20 27 -13 0 -14 -8 -9 -37z"></path>
<path d="M1530 4449 c0 -5 5 -7 10 -4 6 3 10 8 10 11 0 2 -4 4 -10 4 -5 0 -10
-5 -10 -11z"></path>
<path d="M1926 4293 c-8 -162 6 -283 33 -283 11 0 13 11 8 55 -3 30 -11 70
-18 90 -10 28 -10 42 -1 68 17 48 16 217 -1 217 -11 0 -16 -34 -21 -147z"></path>
<path d="M5056 4418 c-9 -36 -7 -110 5 -171 10 -47 9 -68 -6 -131 -10 -41 -15
-82 -12 -90 11 -27 27 -18 27 14 0 17 7 47 15 67 19 45 19 107 0 180 -10 37
-13 75 -9 106 6 48 -8 67 -20 25z"></path>
<path d="M5465 4411 c-13 -61 -88 -86 -137 -46 -19 16 -19 14 3 -8 14 -16 40
-30 61 -33 49 -8 88 28 88 81 0 43 -6 45 -15 6z"></path>
<path d="M1517 4423 c-4 -3 -7 -11 -7 -17 0 -6 5 -5 12 2 6 6 9 14 7 17 -3 3
-9 2 -12 -2z"></path>
<path d="M1600 4404 c0 -14 3 -14 15 -4 8 7 15 14 15 16 0 2 -7 4 -15 4 -8 0
-15 -7 -15 -16z"></path>
<path d="M2960 4395 c0 -26 0 -26 73 -23 64 3 72 5 72 23 0 18 -8 20 -72 23
-73 3 -73 3 -73 -23z"></path>
<path d="M5290 4411 c0 -5 5 -13 10 -16 6 -3 10 -2 10 4 0 5 -4 13 -10 16 -5
3 -10 2 -10 -4z"></path>
<path d="M3902 4393 c3 -15 16 -18 81 -21 72 -3 77 -1 77 18 0 18 -6 20 -81
20 -71 0 -80 -2 -77 -17z"></path>
<path d="M1500 4380 c0 -5 -3 -16 -7 -26 -4 -12 -3 -15 6 -10 12 8 123 -28
148 -46 16 -13 33 -1 33 23 0 11 -5 17 -10 14 -18 -11 -82 15 -76 31 3 8 1 14
-3 14 -5 0 -11 -4 -13 -9 -2 -5 -19 -4 -40 4 -21 7 -38 9 -38 5z"></path>
<path d="M1858 4344 c-4 -3 -3 -17 3 -30 5 -16 5 -40 -3 -67 -13 -48 -5 -97
16 -97 15 0 27 126 16 169 -6 25 -21 36 -32 25z"></path>
<path d="M2960 4210 l0 -140 75 0 75 0 0 140 0 140 -75 0 -75 0 0 -140z"></path>
<path d="M3904 4337 c-2 -7 -3 -69 -2 -138 l3 -124 78 -3 77 -3 0 141 0 140
-75 0 c-53 0 -77 -4 -81 -13z"></path>
<path d="M5131 4331 c-6 -11 -8 -52 -4 -101 6 -75 8 -81 20 -64 10 14 13 32 8
64 -4 25 -6 62 -6 83 2 41 -3 46 -18 18z"></path>
<path d="M5485 4260 c-3 -5 -1 -10 4 -10 18 0 13 -23 -24 -121 -20 -50 -34
-93 -33 -94 2 -2 30 2 63 8 33 6 72 11 88 11 28 1 33 11 17 36 -9 13 -10 13
-10 -1 0 -11 -17 -19 -62 -27 -34 -6 -64 -10 -66 -7 -3 2 2 15 10 27 15 24 68
162 68 179 0 12 -47 12 -55 -1z"></path>
<path d="M1623 4231 c-12 -10 -50 -23 -85 -30 -35 -6 -82 -16 -106 -23 -42
-11 -42 -11 -25 -31 10 -11 51 -44 91 -74 39 -30 72 -59 73 -66 1 -7 4 -1 8
13 6 22 3 27 -27 39 -31 13 -34 17 -29 48 4 20 2 31 -4 28 -5 -4 -9 -13 -9
-21 0 -20 -21 -17 -49 7 -31 25 -19 37 39 43 73 6 128 28 140 55 14 31 10 33
-17 12z"></path>
<path d="M2292 4234 c-12 -8 -24 -31 -28 -52 -10 -56 -15 -58 -38 -11 -12 23
-26 44 -32 46 -6 2 -9 -42 -9 -112 0 -143 -10 -158 -54 -80 -30 52 -54 75 -67
62 -4 -3 -9 -29 -13 -58 -8 -67 -24 -78 -88 -61 -52 14 -59 11 -104 -58 l-16
-25 -18 35 c-10 19 -21 37 -24 40 -12 9 -46 65 -53 85 -10 31 -9 -53 1 -97 10
-44 -1 -42 -25 4 -8 16 -17 28 -19 26 -4 -3 12 -75 31 -138 l7 -25 -27 24
c-14 14 -26 22 -26 20 0 -3 13 -36 30 -74 16 -39 30 -78 30 -89 0 -18 -1 -17
-47 43 -9 12 -13 -10 -4 -26 5 -10 18 -36 27 -58 10 -22 19 -43 21 -47 2 -4
-3 -5 -11 -2 -17 7 -21 -6 -7 -21 5 -6 12 -21 16 -35 7 -21 6 -22 -7 -10 -7 8
-19 34 -26 58 -12 40 -35 63 -49 48 -4 -3 -1 -16 5 -29 6 -12 20 -44 31 -71
16 -38 25 -47 39 -44 14 4 26 -6 46 -40 15 -24 25 -46 22 -49 -2 -2 -26 16
-52 41 -26 25 -54 46 -62 46 -21 0 -7 -60 33 -146 35 -73 78 -119 121 -130 17
-4 24 -13 24 -30 0 -13 -5 -24 -10 -24 -11 0 -79 50 -155 112 l-39 33 28 -50
c16 -27 43 -67 59 -89 29 -36 29 -38 8 -31 -30 9 -19 -12 27 -50 17 -15 32
-31 32 -37 0 -6 -6 -5 -15 2 -9 7 -19 10 -23 5 -4 -4 11 -22 32 -41 45 -39 43
-57 -2 -25 -17 12 -33 21 -37 21 -8 0 45 -73 57 -78 5 -2 5 -8 2 -13 -3 -6
-11 -5 -20 2 -8 6 -17 9 -21 5 -4 -3 13 -26 36 -50 24 -25 38 -45 31 -48 -6
-2 16 -30 49 -61 42 -40 54 -56 38 -52 -16 4 -9 -6 26 -39 48 -45 48 -46 18
-40 -38 8 -40 -6 -3 -29 15 -9 38 -26 52 -37 l25 -21 -42 6 c-33 5 -43 4 -43
-7 0 -18 116 -135 142 -143 10 -4 17 -13 14 -20 -16 -43 184 -126 208 -86 19
30 -23 52 -134 71 l-45 8 60 1 c33 0 74 5 92 10 29 9 32 7 44 -22 7 -18 25
-46 41 -63 l29 -31 -43 -6 c-24 -3 -72 -3 -108 0 l-65 5 30 -21 c17 -11 45
-24 63 -27 36 -7 51 -22 32 -34 -17 -10 5 -17 81 -26 44 -5 57 -9 45 -16 -9
-5 -20 -7 -24 -4 -4 2 -14 1 -21 -4 -9 -5 19 -11 72 -15 62 -5 84 -11 81 -20
-6 -15 37 -25 104 -25 46 0 46 0 27 -20 -19 -18 -23 -18 -60 -5 -22 8 -52 14
-67 15 -15 0 -29 4 -32 9 -3 4 -24 11 -46 15 -23 3 -49 10 -58 15 -30 17 -112
38 -112 31 0 -25 202 -140 265 -152 11 -2 26 -16 33 -31 17 -35 95 -72 198
-94 69 -15 74 -18 74 -43 0 -14 -7 -36 -16 -48 -25 -36 -8 -42 54 -20 l57 21
122 -29 c134 -33 158 -30 168 17 11 50 21 53 228 52 l192 -1 17 -28 c9 -16 22
-35 28 -41 15 -17 76 -16 147 2 68 18 128 19 189 4 25 -6 47 -9 50 -7 3 3 -3
24 -12 47 -9 24 -13 46 -8 50 5 5 38 14 74 21 114 21 183 59 192 105 2 14 14
22 38 26 19 3 66 20 103 37 108 50 229 147 132 106 -19 -7 -45 -14 -59 -14
-14 0 -27 -4 -30 -9 -3 -5 -27 -12 -53 -16 -55 -7 -123 -29 -153 -47 -17 -11
-23 -9 -47 15 l-28 27 75 0 c47 0 86 6 104 15 15 8 38 15 51 15 37 0 85 12 85
21 0 5 -15 9 -32 9 -25 0 -29 3 -18 10 8 5 29 10 45 10 47 0 76 11 73 27 -2
10 11 20 38 28 23 7 52 20 65 30 24 17 23 17 -33 10 -32 -3 -78 -3 -103 1
l-47 6 29 32 c16 17 34 42 40 56 9 23 14 25 67 22 62 -4 66 -19 6 -28 -62 -10
-92 -62 -46 -80 32 -12 196 80 196 110 0 7 11 18 24 24 27 12 127 123 124 136
-2 6 -21 9 -43 8 -35 -2 -38 0 -21 11 11 6 38 29 60 49 31 28 36 38 23 38 -16
0 -15 4 7 33 15 19 26 40 26 48 0 8 18 32 40 54 25 24 36 41 29 46 -7 4 7 23
35 49 25 23 46 49 46 58 0 13 -2 13 -18 -1 -35 -32 -33 -17 4 28 41 51 37 55
-21 20 -60 -37 -60 -31 1 26 30 29 54 56 54 62 0 5 -7 4 -15 -3 -33 -27 -26 2
8 37 35 35 44 60 12 33 -8 -7 -15 -8 -15 -2 0 5 8 16 17 23 26 22 73 101 73
123 0 18 -2 18 -27 -6 -50 -45 -154 -120 -160 -114 -12 11 7 34 44 53 47 24
84 77 118 166 42 114 28 139 -39 67 -20 -22 -54 -49 -74 -59 -49 -25 -138 -51
-176 -51 l-29 0 21 23 c29 30 44 83 36 124 -4 20 -2 33 4 33 5 0 13 -21 17
-46 6 -40 11 -47 40 -60 74 -31 103 -17 144 64 17 34 25 41 35 33 16 -13 24
-5 55 57 25 48 21 62 -16 62 -22 0 -24 3 -18 23 4 12 9 36 12 52 l5 30 -24
-32 c-26 -36 -51 -52 -41 -26 4 9 16 37 28 62 12 25 26 57 30 71 4 14 12 31
18 38 5 7 6 16 2 20 -4 4 -10 2 -12 -5 -6 -18 -43 -57 -43 -46 0 5 7 32 15 59
17 57 19 98 5 89 -5 -3 -10 -14 -10 -23 0 -22 -17 -48 -26 -40 -4 4 -1 20 5
36 7 16 11 49 9 73 l-4 44 -21 -46 c-29 -64 -43 -70 -43 -20 0 45 -20 131 -31
131 -9 0 -39 -110 -39 -142 0 -14 9 -33 20 -43 16 -15 22 -16 35 -5 13 11 12
7 -2 -18 -10 -18 -21 -32 -24 -32 -4 0 -22 23 -40 51 -28 44 -34 49 -44 35 -9
-11 -28 -16 -63 -16 l-51 0 -12 60 c-6 33 -15 63 -20 66 -10 5 -78 -85 -79
-103 0 -7 -4 -13 -9 -13 -16 0 -32 151 -20 193 11 41 6 72 -11 62 -6 -4 -20
-25 -32 -48 l-21 -42 -12 43 c-16 53 -31 72 -58 72 -18 0 -19 -5 -14 -45 4
-25 3 -45 -1 -45 -5 0 -21 14 -37 30 -30 31 -49 37 -60 19 -8 -11 66 -84 132
-130 43 -30 107 -122 105 -151 0 -9 -11 -33 -25 -55 -39 -62 -84 -184 -90
-243 -5 -51 0 -98 19 -159 5 -17 4 -22 -4 -17 -19 11 -14 -44 8 -91 16 -36 17
-43 4 -43 -22 0 -98 -80 -113 -120 -7 -19 -16 -42 -21 -50 -4 -9 -11 -31 -15
-50 -4 -19 -15 -45 -23 -59 -9 -14 -16 -46 -16 -77 -1 -53 -1 -53 -18 -31 -17
22 -18 21 -18 -41 0 -82 12 -104 52 -100 40 4 46 -15 11 -32 -16 -8 -31 -16
-35 -18 -8 -4 -48 80 -48 102 0 9 -4 16 -10 16 -5 0 -10 -9 -10 -19 0 -38 -11
-51 -37 -44 -26 6 -26 5 -21 -44 l5 -51 -46 -6 c-25 -3 -68 -17 -96 -30 -60
-29 -146 -113 -127 -125 10 -6 9 -21 -5 -74 -20 -75 -13 -99 28 -105 13 -2 28
-10 32 -18 4 -8 15 -14 24 -14 23 0 153 61 153 71 0 13 -138 11 -145 -1 -3 -5
-14 -10 -24 -10 -15 0 -20 11 -25 53 -13 100 -13 102 13 105 21 3 23 1 17 -20
-17 -55 -18 -70 -5 -79 37 -23 64 9 50 58 -11 37 3 67 19 43 5 -8 10 -23 10
-32 0 -22 33 -24 50 -3 15 18 56 20 66 4 10 -16 -16 -29 -59 -29 -49 0 -77
-15 -77 -41 0 -46 65 -35 123 22 35 34 42 37 56 25 24 -21 129 -76 146 -76 27
0 27 -23 -1 -46 -36 -29 -44 -30 -44 -2 0 20 -4 18 -41 -17 l-41 -40 4 32 4
32 -44 -40 c-24 -23 -46 -38 -50 -35 -3 4 5 25 18 48 l24 42 -46 -37 c-44 -36
-50 -38 -135 -43 -48 -3 -93 -7 -99 -9 -12 -4 -15 6 -32 98 -11 60 -18 67 -27
25 -13 -65 -16 -70 -31 -57 -25 20 -44 3 -44 -41 0 -38 -2 -42 -42 -59 -63
-26 -176 -62 -233 -72 -27 -6 -75 -15 -105 -20 -63 -12 -294 -6 -313 9 -6 5
-32 12 -57 16 -42 6 -205 58 -242 77 -12 7 -15 18 -11 49 6 45 -10 60 -46 40
-18 -9 -21 -8 -21 9 0 11 -5 32 -11 48 -11 26 -12 24 -24 -45 -8 -41 -15 -75
-17 -77 -2 -2 -21 0 -43 5 -22 5 -61 10 -87 10 -26 0 -49 4 -53 10 -3 5 -11 7
-18 5 -7 -3 -29 11 -51 30 -21 19 -40 35 -42 35 -8 0 38 -85 50 -92 6 -4 8
-10 4 -13 -3 -4 -28 14 -54 39 -27 24 -50 43 -52 41 -3 -2 0 -18 6 -34 6 -17
10 -31 8 -31 -1 0 -22 18 -47 39 -24 22 -45 38 -47 37 -2 -3 15 -49 55 -143 3
-9 -4 -13 -21 -13 -19 0 -26 5 -26 19 0 11 -4 23 -10 26 -6 4 -5 13 2 24 15
24 -9 64 -52 86 -31 16 -32 35 -2 35 9 0 49 18 87 40 39 22 89 50 112 62 l43
22 20 -22 c28 -30 26 -34 -22 -30 -52 3 -51 -8 4 -44 49 -33 84 -36 93 -8 8
24 -1 40 -21 40 -17 0 -19 16 -3 26 6 3 9 17 6 30 -3 19 0 24 16 24 17 0 19
-5 13 -31 -8 -44 2 -79 24 -79 25 0 33 31 21 75 -10 39 -10 39 36 26 18 -5 35
-6 38 -1 3 4 -22 33 -54 63 -58 53 -127 87 -177 87 -39 0 -51 9 -46 35 5 29
-5 75 -16 75 -5 0 -13 -12 -19 -27 l-11 -28 -1 31 c-1 16 -8 39 -16 50 -14 18
-14 18 -15 -5 0 -25 -38 -94 -49 -89 -3 2 -19 10 -36 18 -40 19 -39 18 -26 34
16 19 6 53 -20 66 -10 6 -19 15 -19 19 0 15 32 22 46 10 10 -8 19 -4 39 17 30
33 33 13 5 -34 -11 -18 -20 -44 -20 -58 0 -21 4 -25 22 -22 12 2 28 14 36 28
17 32 8 121 -13 132 -8 5 -15 23 -15 40 0 17 -11 54 -24 82 -13 28 -32 72 -41
98 -21 61 -69 126 -103 140 -15 7 -29 13 -31 15 -2 1 6 23 18 49 25 52 24 80
-2 76 -16 -3 -15 2 4 54 37 99 25 175 -50 325 -26 51 -27 56 -10 52 26 -7 49
14 49 46 0 33 33 97 71 137 27 27 28 32 14 44 -13 11 -11 16 17 37 43 31 54
51 33 59 -10 4 -27 -3 -44 -20 -39 -38 -53 -34 -45 13 7 45 -4 56 -34 35z
m-26 -204 c-14 -17 -26 -40 -26 -49 0 -27 -21 -81 -31 -81 -15 0 -10 54 8 80
38 58 65 91 70 86 3 -3 -6 -19 -21 -36z m-287 -172 c45 -53 51 -65 45 -90 -3
-17 -6 -45 -6 -64 0 -41 -14 -44 -31 -6 -11 25 -12 23 -15 -36 -2 -39 2 -69 9
-78 14 -17 -1 -18 -24 -1 -14 10 -18 36 -22 146 -3 74 -10 142 -16 153 -8 15
-5 38 5 38 2 0 26 -28 55 -62z m3121 54 c0 -4 -5 -13 -11 -19 -6 -6 -11 -70
-12 -162 -2 -138 -4 -151 -20 -151 -16 0 -17 6 -12 44 4 24 4 54 0 66 l-7 22
-16 -24 -17 -23 -8 45 c-14 82 -14 86 38 149 47 57 65 72 65 53z m-3210 -64
c-1 -7 -10 -24 -21 -38 -20 -24 -21 -24 -35 -5 -20 27 -18 31 19 43 17 5 33
10 35 11 1 1 2 -5 2 -11z m3283 -4 c31 -7 31 -8 17 -35 -18 -32 -38 -22 -71
34 -9 16 -8 18 8 13 10 -3 30 -8 46 -12z m25 -119 c2 -2 -4 -15 -13 -29 l-17
-26 -29 31 c-16 17 -29 35 -29 39 0 7 79 -6 88 -15z m-3308 8 c0 -5 -11 -21
-24 -38 l-23 -29 -17 31 c-9 18 -16 33 -16 35 0 2 18 4 40 6 22 1 40 -1 40 -5z
m189 -98 l-22 -37 -18 23 c-22 29 -25 46 -4 29 19 -16 40 0 51 38 7 24 8 25
11 6 2 -12 -6 -38 -18 -59z m2853 40 c4 -20 3 -23 -8 -14 -16 13 -19 39 -5 39
5 0 11 -11 13 -25z m-3043 -64 c-19 -22 -37 -40 -40 -40 -8 -1 -42 49 -37 54
2 2 21 6 42 9 22 4 42 9 45 11 2 3 9 5 14 5 5 0 -6 -18 -24 -39z m3089 17 c-3
-7 -11 -13 -18 -13 -7 0 -15 6 -17 13 -3 7 4 12 17 12 13 0 20 -5 18 -12z
m-91 -34 c-9 -9 -27 6 -27 22 0 13 2 13 16 -1 9 -9 14 -18 11 -21z m323 28 c0
-2 -9 -15 -20 -29 -22 -28 -27 -83 -8 -83 7 0 3 -10 -10 -22 l-22 -22 -30 34
c-16 18 -30 34 -30 35 0 1 11 0 25 -3 32 -6 43 19 24 56 -7 15 -15 30 -17 34
-2 4 17 7 42 6 25 -1 46 -4 46 -6z m-3019 -83 c42 -81 47 -118 24 -173 -14
-33 -19 -36 -55 -36 l-39 0 24 36 c27 39 34 109 13 116 -7 3 -13 22 -13 44 -1
21 -5 52 -9 68 -16 54 16 23 55 -55z m2672 -14 c3 -33 3 -54 0 -47 -3 6 -8 10
-12 8 -8 -5 2 -110 14 -137 4 -12 -1 -18 -20 -22 -23 -4 -29 0 -41 29 -19 46
-18 61 11 140 14 38 28 75 31 83 7 22 11 10 17 -54z m-2778 -16 c-13 -24 -25
-36 -25 -27 0 9 -8 21 -17 27 -10 5 -16 11 -13 13 11 8 75 35 78 33 1 -1 -9
-22 -23 -46z m2853 35 c13 8 35 -20 27 -34 -11 -17 -32 -11 -49 15 -20 30 -21
41 -1 25 8 -6 18 -9 23 -6z m-3018 -12 c0 -11 -47 -52 -59 -52 -5 0 -14 7 -21
15 -9 11 -9 17 2 29 14 16 78 22 78 8z m47 -34 c-3 -8 -6 -5 -6 6 -1 11 2 17
5 13 3 -3 4 -12 1 -19z m21 -98 c9 -19 18 -39 20 -44 6 -12 -150 25 -167 40
-10 9 36 33 62 34 21 0 30 7 38 28 l11 27 10 -25 c6 -14 17 -41 26 -60z m122
25 l-34 -35 -12 22 c-15 27 -14 28 28 38 53 13 54 12 18 -25z m2815 25 c13 11
18 11 30 -1 13 -12 12 -18 -3 -40 l-17 -25 -35 40 c-23 25 -27 34 -13 26 18
-12 24 -12 38 0z m20 -110 c3 -5 1 -10 -4 -10 -6 0 -11 5 -11 10 0 6 2 10 4
10 3 0 8 -4 11 -10z m140 -160 c-4 -6 8 -24 25 -42 l32 -31 -24 -19 c-31 -24
-38 -23 -38 6 0 14 -5 37 -10 51 -11 28 -6 45 11 45 6 0 7 -5 4 -10z m-3055
-14 c30 -8 74 -17 97 -21 52 -8 69 -22 77 -63 6 -32 5 -33 -16 -17 -39 27 -40
16 -3 -29 19 -24 33 -50 30 -57 -3 -8 18 -43 47 -78 28 -36 53 -75 54 -89 2
-19 -7 -12 -43 34 -25 33 -48 61 -53 64 -4 3 -10 14 -14 26 -7 22 -76 94 -76
78 0 -5 10 -27 21 -49 17 -32 50 -150 49 -175 0 -3 -9 6 -20 20 l-20 25 0 -87
c0 -49 -3 -88 -7 -88 -5 0 -35 9 -68 19 -44 14 -53 19 -32 20 15 1 30 8 33 16
4 8 14 15 24 15 11 0 20 10 24 26 14 54 -18 178 -50 197 -8 5 -14 25 -14 46 0
22 -6 41 -12 44 -7 2 -19 25 -27 51 -16 54 -31 69 -31 29 0 -24 -2 -25 -14
-13 -16 18 -30 70 -18 70 4 0 32 -6 62 -14z m3008 -28 c-2 -18 -7 -33 -13 -33
-5 0 -11 15 -13 33 -3 24 1 32 13 32 12 0 16 -8 13 -32z m-38 18 c0 -2 -7 -20
-15 -39 -8 -20 -15 -51 -15 -69 0 -30 -1 -31 -15 -12 -13 17 -14 13 -15 -51 0
-48 -3 -65 -10 -55 -13 21 -26 4 -40 -55 -27 -114 -26 -121 19 -149 22 -14 49
-26 58 -27 15 -1 -89 -38 -107 -39 -3 0 -4 28 -2 63 2 35 2 79 0 98 l-4 34
-26 -55 c-38 -78 -51 -135 -38 -160 6 -11 17 -20 24 -20 8 0 17 -7 20 -16 5
-13 15 -15 46 -11 34 4 40 2 40 -13 0 -10 6 -21 13 -24 6 -3 -15 -3 -48 0 -73
8 -126 25 -230 75 -45 21 -105 45 -135 52 -62 16 -82 40 -28 34 18 -3 41 -8
52 -12 12 -5 37 0 69 13 56 24 64 23 48 -6 -14 -26 -14 -52 -1 -52 16 0 39 43
54 98 15 58 47 114 54 94 2 -8 -4 -34 -13 -58 -20 -53 -15 -64 13 -33 14 14
23 42 27 78 6 48 13 76 43 150 4 10 -6 7 -27 -8 -48 -34 -49 -18 -2 35 42 48
56 81 21 49 -11 -10 -23 -15 -27 -11 -4 4 -3 10 3 14 6 4 14 16 18 28 3 11 16
26 29 32 29 15 147 37 147 28z m-3070 -46 l0 -41 -31 16 c-28 15 -36 40 -11
40 6 0 17 6 24 13 17 17 18 16 18 -28z m372 -14 c4 -6 8 -24 8 -41 0 -16 3
-41 7 -54 5 -21 4 -22 -14 -12 -14 7 -19 18 -16 33 4 27 0 34 -47 72 l-35 29
45 -8 c25 -4 48 -13 52 -19z m2458 -16 c-43 -36 -50 -37 -50 -6 0 27 11 34 55
35 l30 0 -35 -29z m-2360 -23 c14 -12 29 -24 33 -28 8 -6 -32 -99 -43 -99 -4
0 -15 9 -26 21 -15 16 -16 21 -4 19 62 -9 64 11 8 75 -37 42 -39 47 -18 40 14
-4 36 -17 50 -28z m2261 5 c-5 -9 -19 -26 -30 -36 -12 -11 -21 -25 -21 -33 0
-20 -17 -16 -23 6 -6 22 -1 30 37 59 35 27 50 29 37 4z m-2671 -34 c0 -29 -17
-41 -39 -29 -34 19 -25 41 16 41 13 0 23 -6 23 -12z m3093 -2 c7 -19 -18 -40
-38 -32 -8 3 -15 15 -15 26 0 14 7 20 24 20 13 0 26 -6 29 -14z m-356 -23 c2
-6 -10 -16 -26 -23 -16 -6 -37 -20 -47 -31 -22 -25 -44 -24 -44 1 0 15 6 19
27 18 18 -2 32 5 47 25 20 27 36 31 43 10z m-2698 -55 c-5 -17 -13 -36 -19
-42 -5 -5 -10 -22 -10 -37 0 -35 29 -47 51 -20 15 18 16 16 15 -38 l-1 -58
-40 17 c-32 14 -39 22 -37 39 2 12 -2 29 -9 37 -19 24 -17 76 3 82 10 2 18 10
18 18 0 10 23 31 37 34 1 0 -3 -14 -8 -32z m2731 3 c0 -5 -7 -12 -16 -15 -14
-5 -15 -4 -4 9 14 17 20 19 20 6z m246 -6 c4 -8 14 -15 24 -15 13 0 16 -8 15
-35 -1 -20 -10 -43 -18 -53 -9 -10 -14 -27 -11 -38 4 -15 0 -23 -13 -26 -10
-3 -26 -9 -35 -13 -16 -6 -18 -1 -18 37 0 44 0 45 31 40 l32 -5 -6 49 c-3 27
-10 50 -16 52 -14 5 -14 22 -1 22 6 0 13 -7 16 -15z m-246 -40 c-7 -9 -15 -13
-18 -10 -3 2 1 11 8 20 7 9 15 13 18 10 3 -2 -1 -11 -8 -20z m-155 -15 c4 6
14 6 26 -1 20 -10 19 -12 -12 -35 l-33 -24 -18 28 c-24 36 -23 43 7 32 15 -6
26 -6 30 0z m100 -45 c-15 -20 -29 -34 -32 -31 -6 6 50 75 56 70 2 -2 -9 -20
-24 -39z m-2434 -94 c13 -62 29 -91 50 -91 15 0 16 5 8 32 -10 36 -12 88 -3
88 3 0 16 -12 29 -27 12 -16 39 -37 59 -47 34 -18 37 -18 55 -2 11 10 24 15
30 12 6 -4 19 -2 30 3 14 8 20 7 25 -4 3 -10 -1 -15 -13 -15 -25 0 -124 -35
-196 -69 -101 -49 -133 -60 -196 -67 -50 -6 -61 -4 -57 7 3 8 21 15 42 17 27
2 40 9 43 22 3 10 15 20 27 22 16 2 22 11 24 37 2 19 -2 45 -9 58 -16 30 -4
43 17 17 15 -18 15 -17 10 11 -4 17 -9 46 -12 65 l-6 35 16 -29 c9 -17 21 -50
27 -75z m572 -491 c23 0 40 5 43 14 3 8 13 12 25 9 11 -3 21 1 25 11 7 18 34
22 34 6 0 -6 -8 -14 -17 -17 -10 -4 -24 -15 -31 -25 -10 -14 -26 -18 -68 -18
-56 0 -69 -11 -34 -30 26 -14 25 -26 -2 -41 -18 -10 -20 -9 -15 5 4 11 -10 34
-43 71 -28 30 -50 58 -50 60 0 3 21 -6 47 -20 27 -14 64 -25 86 -25z m1713 28
c4 -6 2 -14 -4 -16 -7 -2 -12 -12 -12 -22 0 -23 -13 -32 -33 -24 -13 5 -13 10
5 40 21 36 32 42 44 22z m-293 -29 c-14 -15 -30 -19 -54 -17 -28 3 -31 5 -14
12 11 4 34 13 50 21 38 16 45 10 18 -16z m-129 5 c4 -9 4 -19 1 -22 -7 -8 -35
19 -29 29 8 14 21 11 28 -7z m-1533 -33 c16 -28 16 -29 -7 -40 -22 -10 -26 -8
-34 15 -7 19 -7 31 1 40 16 20 22 18 40 -15z m1846 -18 c-4 -30 -15 -37 -35
-24 -12 7 -12 12 -1 30 20 30 40 27 36 -6z m-1733 -8 c23 -35 20 -42 -20 -55
-40 -14 -39 -14 -48 23 -5 20 -3 27 8 27 8 0 16 7 20 15 8 22 21 18 40 -10z
m1495 -1 c-9 -11 -9 -17 1 -29 17 -20 1 -19 -22 2 -17 15 -17 17 -1 33 21 20
40 15 22 -6z m151 -41 c0 -25 2 -24 -73 -8 l-28 6 28 33 28 33 23 -20 c12 -11
22 -31 22 -44z m-455 17 c0 -8 -7 -16 -15 -17 -22 -4 -44 13 -35 26 10 17 50
9 50 -9z m131 -37 c43 -35 79 -85 68 -96 -5 -4 -134 119 -134 128 0 14 27 1
66 -32z m-18 -49 c24 -25 42 -49 40 -55 -5 -16 -115 -49 -161 -49 -21 0 -49
-7 -62 -16 -13 -8 -44 -16 -68 -17 -37 -2 -49 3 -66 23 l-22 25 6 -31 c5 -28
3 -32 -22 -39 -15 -4 -77 -7 -138 -6 -294 4 -377 17 -383 61 -3 21 -6 20 -37
-14 -30 -33 -37 -36 -86 -36 -37 0 -66 7 -94 23 -50 28 -56 57 -19 86 33 26
53 28 30 2 -14 -15 -15 -24 -7 -40 21 -39 145 -55 161 -21 20 44 28 55 41 55
8 0 13 -7 11 -15 -4 -27 29 23 35 52 3 15 14 35 24 44 18 16 19 16 19 -6 0
-12 -10 -39 -21 -60 -29 -51 -21 -66 38 -75 58 -8 69 -5 65 16 -2 9 4 19 13
22 11 5 15 -1 15 -23 0 -33 19 -40 39 -16 11 13 15 12 32 -5 23 -23 72 -25 92
-4 13 13 16 13 27 0 17 -20 27 -19 33 5 6 23 37 27 37 5 0 -10 11 -15 35 -15
34 0 46 12 25 25 -19 12 -11 38 10 32 21 -5 24 1 14 27 -4 10 -18 16 -41 16
-27 0 -34 4 -31 18 2 12 14 18 39 20 34 3 36 2 61 -58 27 -62 36 -67 86 -54
27 8 29 24 3 24 -47 0 -34 45 15 55 49 9 74 -1 74 -31 0 -21 3 -24 28 -18 48
11 112 36 112 45 0 12 -27 11 -35 -1 -9 -14 -58 -13 -73 2 -13 13 -16 60 -6
71 16 16 72 -8 112 -49z m-218 32 c0 -20 -16 -29 -40 -21 -32 10 -25 35 10 35
19 0 30 -5 30 -14z m-693 -12 c8 -22 -18 -37 -36 -20 -7 8 -10 19 -7 25 10 16
36 13 43 -5z m250 -28 c-4 -12 -64 -25 -84 -18 -7 2 -13 10 -13 17 0 9 16 13
50 13 34 0 50 -4 47 -12z m-138 -270 c59 -57 32 -78 -58 -47 -77 26 -157 39
-198 30 -39 -8 -42 -6 -35 27 l5 26 128 -4 c126 -3 128 -3 158 -32z m862 12
c19 -29 8 -33 -69 -30 -59 3 -92 -1 -139 -17 -75 -25 -89 -26 -97 -4 -10 25
26 55 76 64 67 11 220 3 229 -13z"></path>
<path d="M3925 2100 c3 -5 10 -10 16 -10 5 0 9 5 9 10 0 6 -7 10 -16 10 -8 0
-12 -4 -9 -10z"></path>
<path d="M4920 4235 c-23 -28 14 -115 50 -115 41 0 30 69 -18 113 -17 15 -21
16 -32 2z"></path>
<path d="M5417 4240 c-16 -5 -35 -6 -42 -4 -10 4 -12 -1 -8 -15 7 -26 23 -38
23 -17 0 9 6 16 13 16 6 1 26 7 42 15 33 15 16 18 -28 5z"></path>
<path d="M1827 4133 c-11 -18 -21 -137 -13 -167 13 -51 57 -19 55 41 -1 43
-33 140 -42 126z"></path>
<path d="M4595 4099 c-4 -5 -1 -18 7 -27 21 -25 38 -69 38 -98 0 -52 69 -139
91 -117 9 9 3 23 -21 53 -21 27 -36 60 -42 93 -6 28 -14 59 -19 69 -13 25 -46
41 -54 27z"></path>
<path d="M4647 4104 c-3 -4 9 -25 27 -48 41 -51 52 -71 60 -117 7 -39 28 -65
46 -54 12 8 13 42 1 49 -4 3 -11 23 -15 44 -4 28 -18 51 -53 85 -48 48 -55 52
-66 41z"></path>
<path d="M2386 4068 c-8 -13 -22 -49 -31 -80 -9 -31 -29 -73 -45 -94 -33 -40
-36 -49 -19 -60 19 -11 88 76 89 112 0 17 11 53 25 80 14 27 25 52 25 57 0 16
-30 6 -44 -15z"></path>
<path d="M2582 3958 c-21 -21 -14 -58 13 -68 14 -5 25 -13 25 -17 0 -5 -31
-41 -70 -81 -38 -39 -65 -72 -60 -72 6 0 10 -8 10 -18 0 -20 39 -62 57 -62 22
0 73 -61 73 -88 l1 -27 22 26 c12 15 42 40 66 58 l44 31 50 -77 c112 -176 141
-234 142 -282 l0 -46 80 0 80 0 3 88 3 88 -90 -3 -90 -3 -20 40 c-12 22 -53
92 -92 155 -107 173 -169 286 -169 310 0 51 -47 79 -78 48z m466 -600 c-5 -32
-28 -35 -28 -4 0 17 5 26 16 26 10 0 14 -7 12 -22z m2 -78 c0 -25 -18 -36 -26
-16 -8 21 3 49 16 41 5 -3 10 -15 10 -25z"></path>
<path d="M4383 3953 c-7 -2 -13 -20 -13 -38 0 -20 -14 -58 -33 -92 -264 -460
-277 -481 -277 -436 0 18 -7 22 -37 25 -21 2 -57 1 -80 -1 l-43 -3 0 -89 0
-89 79 0 78 0 6 34 c5 30 163 315 190 343 9 9 25 1 68 -32 l57 -43 21 29 c13
17 44 43 71 60 29 18 50 39 54 54 4 14 10 25 15 25 5 0 -24 35 -65 77 -41 42
-74 80 -74 85 0 5 11 13 24 17 13 5 26 17 30 26 8 22 8 21 -10 39 -15 16 -37
19 -61 9z m-393 -599 c0 -14 -4 -23 -10 -19 -5 3 -10 15 -10 26 0 10 5 19 10
19 6 0 10 -12 10 -26z m-3 -91 c-4 -17 -4 -17 -12 0 -4 9 -4 25 0 35 8 16 8
16 12 0 3 -10 3 -26 0 -35z"></path>
<path d="M2975 3879 c22 -6 124 -9 228 -7 103 2 187 0 187 -4 0 -4 -15 -14
-32 -22 -44 -18 -124 -90 -156 -140 l-27 -41 0 -280 0 -280 55 -5 c51 -5 55
-7 58 -33 5 -45 -12 -57 -87 -57 -76 0 -88 5 -92 40 -4 24 -7 25 -85 28 l-82
3 -6 -45 c-5 -34 -18 -57 -52 -96 l-46 -50 231 0 230 0 3 58 3 57 44 3 c52 4
63 -5 76 -61 l11 -42 52 -3 c57 -3 62 4 37 48 -25 43 -19 60 20 60 37 0 60
-19 96 -77 20 -33 21 -33 101 -33 l80 0 -46 46 c-25 26 -43 51 -40 55 3 5 35
9 72 9 l67 1 -33 27 c-25 21 -32 34 -32 63 0 28 -6 41 -25 53 -19 13 -25 25
-25 54 0 35 -3 40 -40 56 -37 16 -40 21 -40 55 0 35 -3 39 -30 45 -27 5 -30 9
-30 45 0 40 -1 40 -51 55 -63 19 -79 32 -79 62 0 26 9 25 -215 29 -75 2 -75 2
-75 40 0 53 23 99 78 154 135 135 315 141 445 13 80 -78 91 -102 91 -206 1
-81 3 -91 20 -94 18 -4 19 2 14 89 -5 101 -22 145 -75 205 -32 35 -100 88
-125 97 -47 17 0 22 197 20 121 -1 217 3 221 8 3 5 -221 9 -563 8 -381 -1
-555 -4 -528 -10z m398 -696 c3 -5 8 -23 12 -40 l7 -33 -46 0 -46 0 0 40 c0
39 1 40 34 40 19 0 37 -3 39 -7z m128 -28 c24 -40 23 -45 -5 -45 -18 0 -27 8
-35 31 -15 43 -14 51 6 47 9 -2 24 -16 34 -33z m-26 -86 c21 -40 13 -59 -24
-59 -31 0 -41 14 -41 61 0 24 4 29 25 29 17 0 29 -9 40 -31z m172 -1 c18 -18
33 -38 33 -45 0 -17 -61 -17 -81 0 -22 18 -49 64 -42 71 16 16 60 3 90 -26z"></path>
<path d="M2947 3844 c-9 -9 -9 -170 -1 -202 6 -22 10 -23 88 -20 l81 3 0 110
0 110 -80 3 c-45 1 -84 0 -88 -4z"></path>
<path d="M3894 3837 c-2 -7 -3 -58 -2 -113 l3 -99 83 -3 82 -3 0 116 0 115
-80 0 c-58 0 -82 -4 -86 -13z"></path>
<path d="M3150 3770 c0 -33 4 -60 10 -60 6 0 10 4 10 9 0 5 21 32 46 60 l46
51 -56 0 -56 0 0 -60z"></path>
<path d="M3791 3792 c19 -20 42 -48 51 -62 17 -25 17 -24 17 38 l1 62 -51 0
-51 0 33 -38z"></path>
<path d="M4565 3670 c3 -5 8 -10 11 -10 2 0 4 5 4 10 0 6 -5 10 -11 10 -5 0
-7 -4 -4 -10z"></path>
<path d="M2420 3635 c0 -8 2 -15 4 -15 2 0 6 7 10 15 3 8 1 15 -4 15 -6 0 -10
-7 -10 -15z"></path>
<path d="M4590 3606 c0 -9 5 -16 10 -16 6 0 10 4 10 9 0 6 -4 13 -10 16 -5 3
-10 -1 -10 -9z"></path>
<path d="M2412 3521 c-1 -47 -7 -99 -14 -118 -12 -32 -11 -33 58 -105 38 -40
76 -73 84 -73 13 0 29 38 50 123 8 31 5 37 -32 70 -22 20 -56 45 -75 54 -55
27 -62 36 -66 86 -2 29 -4 14 -5 -37z"></path>
<path d="M3018 3582 c-43 -2 -78 -6 -78 -11 0 -25 40 -41 102 -41 59 0 67 3
82 25 9 14 15 25 14 26 -11 3 -54 4 -120 1z"></path>
<path d="M3943 3583 c-35 -2 -63 -6 -63 -9 0 -3 5 -14 10 -25 9 -16 22 -19 85
-19 66 0 76 3 86 21 13 25 -2 40 -36 37 -11 -1 -48 -3 -82 -5z"></path>
<path d="M1457 3552 c-19 -21 -21 -45 -7 -73 16 -28 84 -27 104 3 21 30 20 44
-4 68 -25 25 -72 26 -93 2z"></path>
<path d="M5446 3548 c-21 -29 -20 -51 2 -71 39 -35 102 -11 102 38 0 53 -74
76 -104 33z"></path>
<path d="M4610 3511 c0 -21 -50 -64 -88 -76 -13 -4 -39 -23 -58 -42 -32 -31
-35 -39 -29 -72 6 -38 35 -133 42 -141 2 -2 38 31 79 75 l76 80 -12 61 c-6 33
-8 77 -5 97 4 21 4 37 1 37 -3 0 -6 -9 -6 -19z"></path>
<path d="M2960 3470 l0 -31 78 3 c75 3 77 4 77 28 0 24 -2 25 -77 28 l-78 3 0
-31z"></path>
<path d="M3900 3470 l0 -30 80 0 80 0 0 30 0 30 -80 0 -80 0 0 -30z"></path>
<path d="M2606 3471 c-4 -7 -5 -15 -2 -18 9 -9 19 4 14 18 -4 11 -6 11 -12 0z"></path>
<path d="M4410 3414 c0 -19 4 -33 8 -30 8 5 4 66 -4 66 -2 0 -4 -16 -4 -36z"></path>
<path d="M3820 3388 c-1 -6 -2 -123 -1 -135 1 -7 8 -13 16 -13 13 0 15 12 13
72 -2 46 -7 73 -15 76 -7 2 -13 2 -13 0z"></path>
<path d="M2942 3153 l3 -48 88 -3 87 -3 0 51 0 50 -91 0 -90 0 3 -47z"></path>
<path d="M3892 3153 l3 -48 88 -3 87 -3 0 51 0 50 -91 0 -90 0 3 -47z"></path>
<path d="M1584 3076 c-61 -16 -74 -31 -73 -85 l1 -46 9 42 c8 34 16 43 41 52
17 6 42 11 54 11 14 0 24 6 24 14 0 21 -10 23 -56 12z"></path>
<path d="M5360 3078 c0 -18 18 -34 28 -24 3 4 -2 14 -11 23 -16 16 -17 16 -17
1z"></path>
<path d="M3896 3064 c-3 -9 -6 -32 -6 -53 0 -36 -19 -74 -48 -98 -13 -11 16
-13 153 -13 l169 0 -32 33 c-33 34 -62 93 -62 127 0 18 -6 20 -84 20 -67 0
-85 -3 -90 -16z"></path>
<path d="M5402 3009 c2 -7 -16 -25 -39 -41 -24 -16 -43 -34 -43 -39 0 -11 9
-7 53 23 17 12 40 18 60 16 27 -2 33 1 35 19 3 17 -1 21 -12 17 -8 -3 -24 -1
-35 6 -16 8 -21 8 -19 -1z"></path>
<path d="M1653 2919 c-7 -7 -34 -12 -62 -13 -50 -1 -50 -1 -31 -21 17 -17 24
-18 53 -7 18 7 41 12 50 12 10 0 17 8 17 20 0 22 -10 26 -27 9z"></path>
<path d="M5355 2840 c-7 -34 -20 -38 -47 -13 -10 9 -18 11 -18 5 0 -6 -3 -18
-7 -28 -4 -11 -3 -15 4 -11 14 9 103 -24 103 -37 0 -11 29 25 30 37 0 4 -6 7
-12 6 -33 -4 -48 2 -48 20 0 11 5 23 10 26 13 8 13 25 1 25 -5 0 -12 -13 -16
-30z"></path>
<path d="M2748 2806 c-36 -30 -69 -60 -73 -65 -4 -8 248 -11 837 -11 708 0
840 2 828 14 -8 7 -43 36 -78 65 l-63 51 -693 0 -692 0 -66 -54z"></path>
<path d="M1623 2792 c-29 -9 -53 -22 -53 -29 0 -17 3 -17 44 8 45 26 52 15 37
-67 -6 -32 -11 -68 -11 -80 l0 -22 55 26 c30 15 55 33 55 41 0 12 -2 12 -17 0
-20 -16 -60 -39 -68 -39 -10 0 -5 49 10 107 8 31 12 60 7 64 -4 3 -31 -1 -59
-9z"></path>
<path d="M5229 2658 c-9 -17 -9 -20 3 -15 8 3 35 -6 59 -20 41 -23 44 -23 56
-7 7 10 13 23 13 28 0 6 -4 4 -10 -4 -7 -12 -16 -10 -60 12 -50 26 -50 26 -61
6z"></path>
<path d="M3527 2642 c-25 -27 -21 -61 7 -72 13 -4 26 -20 30 -34 12 -50 26
-27 20 32 -10 89 -26 109 -57 74z"></path>
<path d="M3655 2634 c-3 -16 -13 -43 -21 -60 -9 -18 -14 -40 -11 -50 3 -15 8
-11 20 18 21 46 37 57 37 26 0 -13 5 -29 12 -36 32 -32 39 6 8 45 -11 14 -20
33 -20 42 0 9 -4 23 -9 30 -8 12 -11 8 -16 -15z"></path>
<path d="M3301 2636 c-10 -12 -11 -19 -2 -30 6 -8 18 -33 25 -57 l14 -44 1 50
c0 28 -5 60 -13 73 -11 21 -14 22 -25 8z"></path>
<path d="M3400 2632 c0 -10 9 -35 20 -57 11 -22 20 -45 20 -52 0 -7 5 -13 11
-13 6 0 10 15 8 38 -2 20 3 49 11 65 14 29 5 52 -10 27 -8 -12 -13 -13 -30 -2
-26 16 -30 15 -30 -6z"></path>
<path d="M1736 2559 c-22 -16 -46 -27 -53 -25 -15 6 -17 -3 -3 -24 7 -10 12
-12 18 -4 9 14 48 35 79 43 20 5 22 9 11 23 -12 14 -17 13 -52 -13z"></path>
<path d="M3056 2502 c13 -26 24 -57 24 -69 0 -12 4 -24 9 -27 4 -3 11 -19 15
-36 6 -35 49 -95 73 -104 12 -5 11 1 -5 28 -11 19 -32 69 -46 111 -28 82 -43
109 -74 131 -19 13 -18 10 4 -34z"></path>
<path d="M3888 2525 c-47 -43 -74 -88 -98 -160 -12 -38 -26 -74 -30 -80 -4 -5
-10 -19 -13 -30 -4 -12 9 -3 32 23 26 28 48 67 62 110 12 36 35 88 50 114 16
26 27 48 26 48 -1 0 -14 -11 -29 -25z"></path>
<path d="M3942 2513 c-30 -43 -52 -90 -52 -111 0 -11 -13 -44 -30 -75 -36 -67
-37 -77 -9 -51 32 28 65 85 74 124 4 19 11 41 15 50 4 8 14 29 21 45 7 17 15
33 17 38 10 20 -19 4 -36 -20z"></path>
<path d="M5160 2525 c-9 -11 -5 -17 23 -29 20 -8 45 -24 56 -35 20 -20 21 -20
31 -1 9 16 8 20 -5 20 -8 0 -20 9 -27 19 -6 10 -17 17 -23 14 -7 -2 -19 3 -28
11 -13 13 -17 13 -27 1z"></path>
<path d="M2834 2521 c9 -14 -1 -101 -14 -121 -8 -12 -13 -13 -30 -2 -22 14
-150 17 -150 3 0 -12 112 -61 140 -61 13 0 24 8 27 20 5 20 23 28 23 10 0 -18
29 -11 40 9 20 38 0 139 -30 149 -8 3 -10 0 -6 -7z"></path>
<path d="M3140 2475 c16 -30 35 -75 41 -100 7 -28 27 -62 50 -88 37 -39 38
-40 27 -12 -6 17 -15 35 -19 40 -4 6 -11 28 -15 49 -8 46 -36 99 -73 139 -39
43 -43 32 -11 -28z"></path>
<path d="M5290 2519 c0 -5 5 -7 10 -4 6 3 10 8 10 11 0 2 -4 4 -10 4 -5 0 -10
-5 -10 -11z"></path>
<path d="M1787 2459 c-39 -81 -34 -89 54 -89 63 0 70 2 59 15 -9 11 -16 13
-24 5 -14 -14 -96 -13 -96 1 0 13 40 81 52 90 4 3 2 13 -5 22 -10 14 -16 8
-40 -44z"></path>
<path d="M3308 2448 c-23 -8 -28 -16 -28 -43 0 -42 11 -49 56 -35 33 11 35 15
32 48 -3 41 -16 47 -60 30z"></path>
<path d="M3404 2436 c-12 -30 1 -59 29 -69 15 -5 34 -6 42 -3 22 8 19 63 -4
76 -28 14 -61 12 -67 -4z"></path>
<path d="M3553 2443 c-19 -4 -23 -11 -23 -42 0 -48 4 -51 46 -38 38 12 55 47
34 72 -13 15 -17 16 -57 8z"></path>
<path d="M3647 2443 c-12 -12 -7 -50 8 -63 8 -6 29 -13 47 -13 30 -2 33 1 36
31 3 27 -1 34 -23 42 -30 12 -59 13 -68 3z"></path>
<path d="M5110 2435 c0 -8 5 -15 10 -15 6 0 10 7 10 15 0 8 -4 15 -10 15 -5 0
-10 -7 -10 -15z"></path>
<path d="M5190 2380 c-24 -16 -47 -27 -51 -24 -4 2 -10 -4 -13 -13 -6 -14 -9
-13 -30 6 -16 15 -26 19 -31 11 -4 -6 -5 -12 -4 -14 61 -45 103 -66 110 -54 5
8 2 15 -11 20 -11 4 -20 10 -20 13 0 3 23 19 50 36 28 17 50 35 50 40 0 12 3
13 -50 -21z"></path>
<path d="M1878 2292 c-36 -28 -44 -39 -36 -49 9 -11 14 -9 26 8 9 13 21 19 33
16 14 -4 19 0 19 14 0 11 7 19 16 19 16 0 15 22 -2 26 -5 1 -30 -14 -56 -34z"></path>
<path d="M3311 2275 c13 -22 29 -35 42 -35 19 0 17 4 -13 35 -19 19 -37 35
-42 35 -4 0 2 -16 13 -35z"></path>
<path d="M3374 2282 c32 -35 88 -57 114 -47 15 6 14 9 -6 25 -13 11 -40 22
-60 26 -20 4 -46 11 -57 17 -14 7 -12 1 9 -21z"></path>
<path d="M3610 2289 c-63 -17 -90 -31 -90 -46 0 -22 67 -8 108 23 47 36 44 40
-18 23z"></path>
<path d="M3665 2270 c-27 -28 -27 -30 -8 -30 11 0 28 11 37 25 30 46 13 49
-29 5z"></path>
<path d="M4995 2254 c-15 -12 -16 -14 -3 -11 22 8 53 -16 45 -36 -5 -13 -1
-14 22 -7 38 11 74 30 67 37 -2 3 -18 -2 -35 -10 -30 -15 -31 -14 -43 11 -16
32 -29 36 -53 16z"></path>
<path d="M4951 2217 c-15 -15 -14 -27 2 -27 6 0 28 -16 48 -34 25 -24 40 -31
47 -24 10 10 -18 48 -37 48 -5 0 -18 11 -29 24 -14 19 -22 22 -31 13z"></path>
<path d="M1990 2179 c-19 -20 -42 -38 -50 -41 -13 -5 -13 -8 3 -24 14 -15 17
-16 17 -3 0 8 18 28 40 45 37 27 49 49 33 56 -5 2 -24 -13 -43 -33z"></path>
<path d="M1885 2190 c3 -5 8 -10 11 -10 2 0 4 5 4 10 0 6 -5 10 -11 10 -5 0
-7 -4 -4 -10z"></path>
<path d="M2060 2155 c0 -12 -5 -26 -12 -33 -9 -9 -8 -12 5 -12 23 0 32 24 18
47 -10 17 -10 17 -11 -2z"></path>
<path d="M2000 2113 c0 -32 26 -86 53 -112 25 -22 26 -23 20 -2 -3 11 -11 21
-19 21 -18 0 -24 13 -28 55 -4 41 -26 73 -26 38z"></path>
<path d="M4853 2108 c-9 -10 -2 -24 32 -60 33 -34 47 -43 54 -34 7 8 4 16 -10
24 -10 7 -19 19 -19 27 0 8 -7 15 -15 15 -9 0 -19 9 -23 21 -7 17 -10 18 -19
7z"></path>
<path d="M4920 2100 c0 -5 5 -10 10 -10 6 0 10 5 10 10 0 6 -4 10 -10 10 -5 0
-10 -4 -10 -10z"></path>
<path d="M2114 2069 c-3 -6 -1 -29 6 -50 11 -31 11 -41 0 -54 -10 -12 -10 -15
3 -15 21 0 27 23 17 62 -6 18 -7 41 -4 50 6 20 -11 25 -22 7z"></path>
<path d="M2180 2040 c0 -5 5 -10 11 -10 5 0 7 5 4 10 -3 6 -8 10 -11 10 -2 0
-4 -4 -4 -10z"></path>
<path d="M4758 2020 c13 -6 22 -18 22 -31 0 -18 4 -20 26 -15 15 4 32 2 41 -6
13 -10 15 -9 11 7 -3 15 -11 19 -30 18 -19 -1 -29 4 -33 18 -4 13 -15 19 -33
18 -26 0 -26 -1 -4 -9z"></path>
<path d="M4700 1995 c-10 -12 -10 -15 2 -15 12 0 68 -57 89 -91 3 -5 14 0 24
11 18 19 18 20 -2 20 -13 0 -34 17 -54 45 -38 50 -41 51 -59 30z"></path>
<path d="M2236 1962 c-9 -17 -27 -39 -40 -50 -19 -14 -22 -22 -13 -31 15 -15
27 -14 27 3 0 7 15 29 34 49 27 29 31 38 21 47 -11 9 -17 5 -29 -18z"></path>
<path d="M2344 1911 c8 -12 -40 -91 -55 -91 -8 0 -7 -5 1 -15 15 -19 30 -19
30 -2 0 8 13 33 30 55 30 41 30 42 9 53 -14 7 -19 7 -15 0z"></path>
<path d="M2410 1860 c0 -5 6 -10 14 -10 8 0 17 -7 20 -16 10 -26 7 -89 -5
-101 -13 -13 -4 -33 14 -33 7 0 13 8 14 18 1 9 3 24 4 32 1 8 1 32 1 52 -2 31
-7 40 -32 53 -17 9 -30 11 -30 5z"></path>
<path d="M4543 1781 c1 -44 6 -67 13 -64 12 4 13 73 2 73 -5 0 -8 7 -8 15 0
20 5 19 57 -6 26 -13 50 -18 61 -14 14 6 13 9 -8 15 -14 4 -44 17 -67 28 -23
12 -44 22 -47 22 -3 0 -4 -31 -3 -69z"></path>
<path d="M2533 1783 c-21 -8 -15 -22 7 -16 11 3 20 9 20 14 0 10 -8 10 -27 2z"></path>
<path d="M4414 1779 c-3 -6 -1 -15 5 -19 15 -9 41 -57 41 -76 0 -16 9 -18 30
-4 8 5 10 10 4 10 -6 0 -21 23 -34 50 -24 51 -33 59 -46 39z"></path>
<path d="M4355 1713 c14 -21 25 -41 25 -45 0 -13 -37 -9 -97 8 -30 9 -57 14
-59 11 -3 -3 2 -22 10 -42 9 -21 16 -46 16 -56 0 -11 4 -19 8 -19 19 0 19 14
0 46 -11 19 -18 38 -14 41 3 3 37 0 76 -7 39 -7 72 -11 75 -8 9 9 -39 108 -52
108 -9 0 -5 -12 12 -37z"></path>
<path d="M2647 1692 c-20 -22 -21 -51 -3 -74 18 -24 29 -23 16 1 -15 30 -12
48 12 71 16 15 18 20 6 20 -8 0 -22 -8 -31 -18z"></path>
<path d="M2775 1668 c20 -30 19 -50 -5 -76 -24 -26 -14 -29 18 -6 33 23 25 83
-13 98 -14 5 -14 4 0 -16z"></path>
<path d="M2870 1628 c0 -13 -7 -36 -15 -52 -19 -36 -19 -46 0 -46 8 0 15 8 15
18 0 10 4 22 9 28 5 5 12 24 16 42 5 25 3 32 -9 32 -10 0 -16 -9 -16 -22z"></path>
<path d="M4063 1642 c-10 -6 -9 -19 2 -56 8 -27 12 -52 10 -56 -8 -12 9 -20
23 -11 10 6 8 18 -7 52 -12 24 -21 50 -21 57 0 18 48 14 59 -5 11 -21 26 -11
18 12 -7 16 -62 21 -84 7z"></path>
<path d="M3200 1592 c0 -4 11 -12 25 -19 14 -6 25 -8 25 -4 0 4 -11 13 -25 19
-14 6 -25 8 -25 4z"></path>
<path d="M3973 1582 c22 -24 22 -68 0 -82 -11 -7 -12 -10 -4 -7 8 2 24 15 34
30 19 24 19 27 3 51 -9 14 -24 26 -33 26 -15 0 -15 -1 0 -18z"></path>
<path d="M4127 1585 c-5 -11 0 -15 16 -15 12 0 18 4 12 8 -5 4 -13 11 -16 15
-4 4 -9 1 -12 -8z"></path>
<path d="M3077 1572 c-10 -10 -17 -26 -17 -36 0 -26 55 -76 82 -76 20 1 19 3
-9 15 -45 19 -61 56 -39 90 19 29 7 34 -17 7z"></path>
<path d="M3850 1570 c-35 -35 -20 -75 35 -94 16 -5 14 -2 -7 19 -34 31 -36 59
-6 79 12 9 17 16 10 16 -6 0 -21 -9 -32 -20z"></path>
<path d="M3704 1553 c3 -10 7 -40 7 -66 2 -38 6 -47 18 -45 12 2 15 12 13 36
-3 30 -1 32 28 32 18 0 29 4 25 10 -3 6 -17 7 -30 4 -20 -5 -27 -1 -35 20 -11
29 -35 37 -26 9z"></path>
<path d="M4188 1563 c7 -3 16 -2 19 1 4 3 -2 6 -13 5 -11 0 -14 -3 -6 -6z"></path>
<path d="M3330 1539 c-7 -11 -9 -23 -6 -27 3 -3 6 0 6 6 0 26 16 10 39 -38 18
-37 29 -50 45 -49 11 0 15 3 8 6 -7 3 -26 31 -42 64 -17 32 -32 59 -35 59 -2
0 -9 -9 -15 -21z"></path>
<path d="M3468 1510 c3 -32 0 -55 -8 -65 -11 -13 -5 -15 46 -13 43 1 49 2 22
5 l-38 4 0 60 c0 43 -4 59 -14 59 -10 0 -12 -12 -8 -50z"></path>
<path d="M3605 1495 c0 -57 2 -65 19 -65 14 0 17 5 12 23 -3 12 -6 41 -6 65 0
27 -4 42 -12 42 -9 0 -13 -20 -13 -65z"></path>
<path d="M3292 1475 c-24 -27 -27 -35 -14 -35 5 0 18 14 30 30 27 36 14 40
-16 5z"></path>
</g>
</svg>